<?xml version="1.0" encoding="UTF-8" standalone="no"?>
<!-- Created with Inkscape (http://www.inkscape.org/) -->

<svg
   width="128"
   height="128"
   viewBox="0 0 33.866666 33.866666"
   version="1.1"
   id="svg1"
   xml:space="preserve"
   inkscape:version="1.3.2 (091e20e, 2023-11-25, custom)"
   sodipodi:docname="icon.svg"
   xmlns:inkscape="http://www.inkscape.org/namespaces/inkscape"
   xmlns:sodipodi="http://sodipodi.sourceforge.net/DTD/sodipodi-0.dtd"
   xmlns="http://www.w3.org/2000/svg"
   xmlns:svg="http://www.w3.org/2000/svg"><sodipodi:namedview
     id="namedview1"
     pagecolor="#505050"
     bordercolor="#eeeeee"
     borderopacity="1"
     inkscape:showpageshadow="0"
     inkscape:pageopacity="0"
     inkscape:pagecheckerboard="0"
     inkscape:deskcolor="#505050"
     inkscape:document-units="px"
     inkscape:zoom="4.1373682"
     inkscape:cx="79.3983"
     inkscape:cy="55.228345"
     inkscape:window-width="1920"
     inkscape:window-height="1017"
     inkscape:window-x="-8"
     inkscape:window-y="-8"
     inkscape:window-maximized="1"
     inkscape:current-layer="g2" /><defs
     id="defs1" /><g
     inkscape:label="Warstwa 1"
     inkscape:groupmode="layer"
     id="layer1"><text
       xml:space="preserve"
       style="font-size:18.7239px;opacity:1;fill:#ffffff;fill-opacity:1;stroke-width:1.56032"
       x="143.52316"
       y="69.095001"
       id="text1"><tspan
         sodipodi:role="line"
         style="fill:#ffffff;fill-opacity:1;stroke-width:1.56032"
         x="143.52316"
         y="69.095001"
         id="tspan2" /></text><g
       id="g8"
       transform="matrix(1.1295697,-0.24899897,0.24899897,1.1295697,-46.294378,32.238434)" /><g
       id="g2"
       transform="matrix(0.45529446,0,0,0.45529446,-56.545577,-13.393328)"><rect
         style="opacity:1;fill:#dc0032;fill-opacity:1;stroke-width:0.48129"
         id="rect1"
         width="74.384094"
         height="74.384094"
         x="124.19562"
         y="29.416847"
         ry="15.48857"
         inkscape:export-filename="..\..\VAT_Yeah\src\icons\icon16.png"
         inkscape:export-xdpi="6"
         inkscape:export-ydpi="6" /><path
         id="rect3"
         style="opacity:1;fill:none;stroke:#ffffff;stroke-width:3"
         d="m 141.37505,38.869228 h 38.48738 v 34.449458 l -8.78533,10.6621 h -29.70205 z"
         sodipodi:nodetypes="cccccc" /><path
         style="opacity:1;fill:none;fill-opacity:1;stroke:#ffffff;stroke-width:3;stroke-dasharray:none;stroke-opacity:1"
         d="m 148.78805,48.345949 h 23.66137"
         id="path3" /><path
         style="opacity:1;fill:none;fill-opacity:1;stroke:#ffffff;stroke-width:3;stroke-dasharray:none;stroke-opacity:1"
         d="m 148.78805,54.357218 h 23.66137"
         id="path4" /><circle
         style="opacity:1;fill:#dc0032;fill-opacity:1;stroke:#ffffff;stroke-width:3;stroke-dasharray:none;stroke-opacity:1"
         id="path7"
         cx="177.09804"
         cy="-65.055977"
         r="12.299656"
         transform="matrix(0.97479525,0.62265753,-0.62265753,0.97479525,-46.294379,32.238434)" /><path
         style="opacity:1;fill:none;fill-opacity:1;stroke:#ffffff;stroke-width:3.63932;stroke-linecap:round;stroke-dasharray:none;stroke-opacity:1"
         d="m 180.36093,88.357884 6.67435,6.674353"
         id="path8"
         transform="matrix(1.1295697,-0.24899897,0.24899897,1.1295697,-46.294379,32.238434)" /><path
         style="-inkscape-font-specification:'Calibri Bold';fill:#ffffff;stroke-width:16.8494;stroke-linecap:round"
         d="m 186.65493,44.093205 q 0.0784,0.235093 0.0979,0.372231 0.0196,0.137138 -0.0522,0.208972 -0.0718,0.0653 -0.25469,0.07836 -0.18285,0.01959 -0.50283,0.01959 -0.33305,0 -0.52243,-0.01306 -0.18285,-0.0065 -0.28081,-0.03265 -0.098,-0.03265 -0.13714,-0.08489 -0.0392,-0.05224 -0.0653,-0.137138 l -0.56814,-1.697896 h -3.17376 l -0.53549,1.652183 q -0.0261,0.09143 -0.0718,0.156729 -0.0392,0.05877 -0.13714,0.09796 -0.0914,0.03265 -0.26774,0.04571 -0.16979,0.01306 -0.4506,0.01306 -0.30039,0 -0.47018,-0.01959 -0.16979,-0.01959 -0.2351,-0.09143 -0.0653,-0.07836 -0.0457,-0.215502 0.0196,-0.137138 0.098,-0.365701 l 2.60561,-7.496866 q 0.0392,-0.111016 0.0914,-0.17632 0.0522,-0.07183 0.16326,-0.104486 0.11755,-0.03918 0.31999,-0.04571 0.20244,-0.01306 0.53549,-0.01306 0.38529,0 0.61385,0.01306 0.22856,0.0065 0.35264,0.04571 0.13061,0.03265 0.18285,0.104486 0.0588,0.07183 0.098,0.195911 z m -3.87904,-6.197322 h -0.007 l -1.19506,3.591704 h 2.39664 z m 6.78505,6.602205 q 0,0.0653 -0.0457,0.117546 -0.0392,0.05224 -0.13714,0.0849 -0.0979,0.03265 -0.26121,0.05224 -0.16326,0.01959 -0.41795,0.01959 -0.24815,0 -0.41794,-0.01959 -0.16326,-0.01959 -0.26122,-0.05224 -0.0979,-0.03265 -0.14366,-0.0849 -0.0392,-0.05224 -0.0392,-0.117546 v -7.980114 q 0,-0.0653 0.0392,-0.117546 0.0457,-0.05224 0.14366,-0.08489 0.10449,-0.03265 0.26775,-0.05224 0.16326,-0.01959 0.41141,-0.01959 0.25469,0 0.41795,0.01959 0.16326,0.01959 0.26121,0.05224 0.098,0.03265 0.13714,0.08489 0.0457,0.05224 0.0457,0.117546 z"
         id="text8"
         transform="matrix(1.1566885,0,0,1.1566885,-46.294379,32.238434)"
         aria-label="AI" /><path
         style="opacity:1;fill:none;fill-opacity:1;stroke:#ffffff;stroke-width:2.69215;stroke-dasharray:none;stroke-opacity:1"
         d="m 148.78805,60.368487 h 19.05442"
         id="path9" /><path
         style="opacity:1;fill:none;fill-opacity:1;stroke:#ffffff;stroke-width:2.18918;stroke-dasharray:none;stroke-opacity:1"
         d="m 148.78805,66.225831 h 12.59962"
         id="path10" /></g></g></svg>
